<svg width="423" height="482" viewBox="0 0 423 482" fill="none" xmlns="http://www.w3.org/2000/svg">
<path fill-rule="evenodd" clip-rule="evenodd" d="M-62.7738 273.711C-65.9301 224.802 -80.2858 174.838 -57.0167 132.373C-27.1259 77.8243 17.7604 11.6108 77.2653 18.1473C136.751 24.6818 147.9 110.708 186.167 159.087C217.954 199.273 277.423 221.462 279.414 273.711C281.427 326.529 233.598 363.758 195.268 397.914C161.042 428.414 122.111 454.01 77.2653 453.849C32.5575 453.689 -11.6227 433.488 -39.9348 397.069C-66.1371 363.364 -59.9698 317.161 -62.7738 273.711Z" stroke="#011F4A" stroke-width="4"/>
<path fill-rule="evenodd" clip-rule="evenodd" d="M125.637 439.031C121.763 377.581 84.6676 280.031 140.646 262.009C207.657 240.435 239.081 373.855 308.914 380.027C366.312 385.1 399.604 262.302 451.1 289.45C496.135 313.192 421.86 386.048 420.838 439.031C419.863 489.594 470.872 539.744 445.444 582.663C419.205 626.951 358.484 625.96 308.914 627.945C256.689 630.037 198.907 632.514 161.576 594.034C124.038 555.342 129.114 494.197 125.637 439.031Z" stroke="#011F4A" stroke-width="4"/>
<path fill-rule="evenodd" clip-rule="evenodd" d="M-60.1575 636.726C-74.5025 583.894 -130.863 531.69 -103.512 484.863C-77.0558 439.568 -9.35436 458.856 41.0397 463.47C85.5547 467.546 126.177 481.747 162.416 509.212C207.929 543.706 263.435 578.128 269.642 636.726C276.162 698.274 239.57 758.463 192.812 796.174C150.589 830.229 91.9202 837.537 41.0398 821.101C-0.207786 807.777 -17.7918 760.454 -39.3482 721.179C-53.7218 694.992 -52.2645 665.796 -60.1575 636.726Z" stroke="#011F4A" stroke-width="4"/>
<path fill-rule="evenodd" clip-rule="evenodd" d="M-404.487 600.801C-370.405 545.64 -288.828 670.89 -230.017 648.614C-166.662 624.618 -175.28 478.199 -108.73 488.779C-50.4163 498.05 -117.869 606.684 -108.369 667.953C-101.69 711.028 -53.8826 741.812 -62.8881 784.428C-73.2191 833.318 -108.208 886.035 -155.534 891.148C-201.866 896.154 -234.259 844.729 -262.819 806.03C-279.342 783.64 -261.806 748.627 -277.639 725.69C-313.019 674.436 -437.328 653.953 -404.487 600.801Z" stroke="#011F4A" stroke-width="4"/>
<path fill-rule="evenodd" clip-rule="evenodd" d="M371.14 226.489C353.743 179.94 435.364 154.575 480.759 139.306C509.076 129.781 535.198 153.453 563.889 161.655C580.48 166.397 599.885 163.267 611.408 176.653C622.609 189.665 619.425 208.961 619.698 226.489C619.979 244.496 617.78 260.689 612.989 277.983C598.372 330.742 615.698 436.07 563.889 427.936C509.076 419.331 566.834 305.604 527.575 264.574C488.157 223.377 391.448 280.827 371.14 226.489Z" stroke="#011F4A" stroke-width="4"/>
<path fill-rule="evenodd" clip-rule="evenodd" d="M-233.878 104.823C-230.827 81.7114 -208.407 69.6291 -197.969 49.0292C-177.457 8.54683 -187.866 -63.1857 -144.816 -70.9527C-104.168 -78.2861 -101.894 -1.05619 -69.5983 25.8692C-27.5179 60.9521 62.3674 48.5452 66.0193 104.823C69.5878 159.814 -10.1812 173.993 -58.6024 195.318C-86.1599 207.455 -115.085 200.862 -144.816 197.679C-169.834 195 -197.226 197.169 -215.069 178.566C-232.949 159.923 -237.337 131.026 -233.878 104.823Z" stroke="#011F4A" stroke-width="4"/>
<path fill-rule="evenodd" clip-rule="evenodd" d="M157.658 102.815C152.084 73.2885 135.328 35.0973 157.45 15.9502C179.919 -3.49664 212.648 41.3198 240.187 31.3846C304.866 8.05003 349.037 -108.453 409.553 -75.0021C462.924 -45.5015 371.409 39.5249 369.412 102.815C367.563 161.424 449.63 245.169 398.693 269.229C339.405 297.232 298.744 193.502 240.187 163.852C222.885 155.092 200.527 172.553 184.824 160.939C167.354 148.019 161.813 124.822 157.658 102.815Z" stroke="#011F4A" stroke-width="4"/>
<path fill-rule="evenodd" clip-rule="evenodd" d="M-36.64 53.412C-41.4439 5.91978 -79.928 -61.3501 -39.995 -84.3648C4.01403 -109.729 41.2685 -21.6726 91.4801 -20.4279C138.907 -19.2523 176.406 -103.934 216.879 -77.9974C254.072 -54.1628 221.59 10.4714 206.705 53.4119C197.064 81.2245 166.692 90.8838 150.051 114.79C126.492 148.635 129.881 207.299 91.4801 218.944C52.1433 230.873 11.0023 198.109 -14.7939 164.78C-38.477 134.181 -32.677 92.5908 -36.64 53.412Z" stroke="#011F4A" stroke-width="4"/>
</svg>
